<?xml version="1.0" encoding="UTF-8"?>
<svg width="24px" height="24px" viewBox="0 0 24 24" version="1.1" xmlns="http://www.w3.org/2000/svg">
    <g stroke="none" stroke-width="1" fill="none" fill-rule="evenodd">
        <path d="M12,2 C17.5228475,2 22,6.4771525 22,12 C22,17.5228475 17.5228475,22 12,22 C6.4771525,22 2,17.5228475 2,12 C2,6.4771525 6.4771525,2 12,2 Z" fill="#742FFF"/>
        <path d="M15,8 C16.6568542,8 18,9.34314575 18,11 L18,13 C18,14.6568542 16.6568542,16 15,16 L9,16 C7.34314575,16 6,14.6568542 6,13 L6,11 C6,9.34314575 7.34314575,8 9,8 L15,8 Z" fill="#FF7300"/>
        <circle fill="#FFFFFF" cx="12" cy="12" r="2"/>
    </g>
</svg> 